<svg width="41" height="38" viewBox="0 0 41 38" fill="none" xmlns="http://www.w3.org/2000/svg">
<g filter="url(#filter0_d_4_637)">
<path fill-rule="evenodd" clip-rule="evenodd" d="M5.14351 0C4.59122 0 4.14351 0.447716 4.14351 1V23C4.14351 23.1606 4.17146 23.3209 4.16963 23.4815L4.1016 29.4266C4.09677 29.8486 4.58465 30.0864 4.91408 29.8227L11.638 24.4388C11.9927 24.1548 12.4336 24 12.888 24H35.1435C35.6958 24 36.1435 23.5523 36.1435 23V1C36.1435 0.447715 35.6958 0 35.1435 0H5.14351ZM11 8C11 7.44772 11.4477 7 12 7H30C30.5523 7 31 7.44772 31 8C31 8.55229 30.5523 9 30 9H12C11.4477 9 11 8.55229 11 8ZM12 12C11.4477 12 11 12.4477 11 13C11 13.5523 11.4477 14 12 14H20C20.5523 14 21 13.5523 21 13C21 12.4477 20.5523 12 20 12H12Z" fill="white" fill-opacity="0.75" shape-rendering="crispEdges"/>
</g>
<defs>
<filter id="filter0_d_4_637" x="0.101562" y="0" width="40.042" height="37.9333" filterUnits="userSpaceOnUse" color-interpolation-filters="sRGB">
<feFlood flood-opacity="0" result="BackgroundImageFix"/>
<feColorMatrix in="SourceAlpha" type="matrix" values="0 0 0 0 0 0 0 0 0 0 0 0 0 0 0 0 0 0 127 0" result="hardAlpha"/>
<feOffset dy="4"/>
<feGaussianBlur stdDeviation="2"/>
<feComposite in2="hardAlpha" operator="out"/>
<feColorMatrix type="matrix" values="0 0 0 0 0 0 0 0 0 0 0 0 0 0 0 0 0 0 0.25 0"/>
<feBlend mode="normal" in2="BackgroundImageFix" result="effect1_dropShadow_4_637"/>
<feBlend mode="normal" in="SourceGraphic" in2="effect1_dropShadow_4_637" result="shape"/>
</filter>
</defs>
</svg>
